# xmcd
#
# Track frame offsets:
#	150
#	17368
#	33674
#	50068
#	70289
#	89313
#	107436
#	122439
#	140685
#	159813
#
# Disc length: 2435 seconds
#
# Revision: 0
# Processed by: cddbd v1.5.2PL0 Copyright (c) Steve Scherf et al.
# Submitted via: EasyCDDAExtractor 11.0.2.1
#
DISCID=7a09810a
DTITLE=Suurl‰hettil‰‰t - Tyhj‰ taulu
DYEAR=2008
DGENRE=Pop
TTITLE0=Ei se oo
TTITLE1=Lopputekstit
TTITLE2=Tyhj‰ taulu
TTITLE3=C-rapun Pauliina
TTITLE4=Tuntemattomalla tiell‰
TTITLE5=Jotkut haluaa kaiken
TTITLE6=On vain nyt
TTITLE7=Viel‰ joskus
TTITLE8=Tule lumi
TTITLE9=P‰iv‰ viilenee illaksi
EXTD=
EXTT0=
EXTT1=
EXTT2=
EXTT3=
EXTT4=
EXTT5=
EXTT6=
EXTT7=
EXTT8=
EXTT9=
PLAYORDER=
